<svg xmlns="http://www.w3.org/2000/svg" version="1.1" xmlns:xlink="http://www.w3.org/1999/xlink" xmlns:svgjs="http://svgjs.dev/svgjs" width="1000" height="1000"><g clip-path="url(#SvgjsClipPath1139)"><rect width="1000" height="1000" fill="#ffffff"></rect><g transform="matrix(2.6666666666666665,0,0,2.6666666666666665,100,100)"><svg xmlns="http://www.w3.org/2000/svg" version="1.1" xmlns:xlink="http://www.w3.org/1999/xlink" xmlns:svgjs="http://svgjs.dev/svgjs" width="300" height="300"><svg xmlns:dc="http://purl.org/dc/elements/1.1/" xmlns:cc="http://creativecommons.org/ns#" xmlns:rdf="http://www.w3.org/1999/02/22-rdf-syntax-ns#" xmlns:svg="http://www.w3.org/2000/svg" xmlns="http://www.w3.org/2000/svg" xmlns:sodipodi="http://sodipodi.sourceforge.net/DTD/sodipodi-0.dtd" xmlns:inkscape="http://www.inkscape.org/namespaces/inkscape" width="300" height="300" viewBox="0 0 300 300" version="1.1" id="svg2216" inkscape:version="1.0.1 (3bc2e813f5, 2020-09-07)" sodipodi:docname="_MASTER-FRAME-FONT-NEW.svg">
  <defs id="defs2210"><clipPath id="SvgjsClipPath1139"><rect width="1000" height="1000" x="0" y="0" rx="500" ry="500"></rect></clipPath></defs>
  <sodipodi:namedview id="base" pagecolor="#ffffff" bordercolor="#666666" borderopacity="1.0" inkscape:pageopacity="0.0" inkscape:pageshadow="2" inkscape:zoom="0.98994949" inkscape:cx="233.17409" inkscape:cy="184.99516" inkscape:document-units="px" inkscape:current-layer="layer1" showgrid="false" units="px" inkscape:window-width="1366" inkscape:window-height="705" inkscape:window-x="-8" inkscape:window-y="-8" inkscape:window-maximized="1" fit-margin-top="10" fit-margin-left="10" fit-margin-bottom="10" fit-margin-right="10" inkscape:showpageshadow="false" scale-x="1" inkscape:document-rotation="0"></sodipodi:namedview>
  <metadata id="metadata2213">
    <rdf:rdf>
      <cc:work rdf:about="">
        <dc:format>image/svg+xml</dc:format>
        <dc:type rdf:resource="http://purl.org/dc/dcmitype/StillImage"></dc:type>
        <dc:title></dc:title>
      </cc:work>
    </rdf:rdf>
  </metadata>
  <g inkscape:label="Layer 1" inkscape:groupmode="layer" id="layer1" transform="translate(0,0)">
    
<g aria-label="m" transform="matrix(1.1367341,0,0,0.78976169,-245.54553,-32.818913)" id="g25" style="font-size:515.439px;line-height:1.25;font-family:Arial;-inkscape-font-specification:'Arial, Normal';fill:#010101;fill-opacity:1;stroke-width:9.20426">
      <path d="m 312.73102,96.38241 c -7.81352,21.49855 -8.01363,35.97507 -19.24534,59.71073 -9.33766,-17.09609 -17.06768,-44.07604 -25.50193,-53.81485 -26.92748,23.56668 -32.50208,67.42593 -27.98271,103.55413 3.24157,25.02386 17.95238,64.36282 29.08736,85.63309 8.81519,17.0475 17.88968,30.56853 26.74808,43.35602 -0.77326,-6.25597 2.40426,-22.83951 3.33217,-34.56944 -7.36407,-15.94213 -12.41527,-25.84937 -19.17527,-39.74765 -12.74566,-21.57793 -28.78196,-91.17036 -14.88174,-103.87887 8.9065,7.31716 19.79701,40.86029 28.44239,55.45149 8.61108,-17.5796 16.00869,-33.5702 26.15057,-52.96847 1.54652,21.73947 -0.14133,87.81628 -0.29598,124.72647 -0.46395,48.95291 -0.83823,74.62758 -0.52892,84.94992 7.62128,8.87401 10.91824,14.25731 20.45412,25.61369 l 0.236,-268.74687 c -12.81017,-18.53982 -16.64161,-23.9485 -26.8388,-29.26939 z" style="font-style:normal;font-variant:normal;font-weight:normal;font-stretch:normal;font-family:'SunCatcherStudioFont left';-inkscape-font-specification:'SunCatcherStudioFont left';fill:#010101;fill-opacity:1;stroke-width:8.53155" id="path21" sodipodi:nodetypes="cccccccccccccccc"></path>
    </g>



<g aria-label="m" transform="matrix(-1.1367341,0,0,0.78976169,545.44837,-32.818913)" id="g17" style="font-size:515.439px;line-height:1.25;font-family:Arial;-inkscape-font-specification:'Arial, Normal';fill:#010101;fill-opacity:1;stroke-width:9.20426">
      <path d="m 312.73102,96.38241 c -7.81352,21.49855 -8.01363,35.97507 -19.24534,59.71073 -9.33766,-17.09609 -17.06768,-44.07604 -25.50193,-53.81485 -26.92748,23.56668 -32.50208,67.42593 -27.98271,103.55413 3.24157,25.02386 17.95238,64.36282 29.08736,85.63309 8.81519,17.0475 17.88968,30.56853 26.74808,43.35602 -0.77326,-6.25597 2.40426,-22.83951 3.33217,-34.56944 -7.36407,-15.94213 -12.41527,-25.84937 -19.17527,-39.74765 -12.74566,-21.57793 -28.78196,-91.17036 -14.88174,-103.87887 8.9065,7.31716 19.79701,40.86029 28.44239,55.45149 8.61108,-17.5796 16.00869,-33.5702 26.15057,-52.96847 1.54652,21.73947 -0.14133,87.81628 -0.29598,124.72647 -0.46395,48.95291 -0.83823,74.62758 -0.52892,84.94992 7.62128,8.87401 10.91824,14.25731 20.45412,25.61369 l 0.236,-268.74687 c -12.81017,-18.53982 -16.64161,-23.9485 -26.8388,-29.26939 z" style="font-style:normal;font-variant:normal;font-weight:normal;font-stretch:normal;font-family:'SunCatcherStudioFont left';-inkscape-font-specification:'SunCatcherStudioFont left';fill:#010101;fill-opacity:1;stroke-width:8.53155" id="path15" sodipodi:nodetypes="cccccccccccccccc"></path>
    </g>



  </g>
</svg></svg></g></g></svg>