<svg version="1.1" id="Layer_1" xmlns="http://www.w3.org/2000/svg" xmlns:xlink="http://www.w3.org/1999/xlink" x="0px" y="0px"
	 width="100%" viewBox="0 0 1024 1024" enable-background="new 0 0 1024 1024" xml:space="preserve">
<path fill="white" opacity="1.000000" stroke="none" 
	d="
M733.913330,505.099762 
	C732.701904,552.052124 733.641418,598.546326 733.386047,645.035767 
	C733.345825,652.357239 733.875183,659.684631 734.245178,667.004089 
	C734.387024,669.810486 733.919373,671.987671 731.492310,673.985596 
	C727.841187,676.991089 725.931763,681.410095 723.831726,685.571655 
	C711.964233,709.089966 701.032288,733.050842 692.866760,758.105469 
	C687.291260,775.212708 675.889709,788.107178 664.421997,801.078918 
	C632.734863,836.921692 594.938110,865.053711 553.358582,888.295959 
	C542.266418,894.496277 530.279541,898.635864 517.993835,901.855225 
	C513.134583,903.128540 508.370758,902.068848 503.697876,900.893555 
	C487.256866,896.758484 472.170715,889.625671 457.503021,881.118347 
	C434.154114,867.575806 413.624939,850.288147 392.809296,833.446472 
	C377.134247,820.764038 364.428894,804.986694 351.087128,789.842590 
	C332.865814,769.159729 325.227356,743.635254 315.048370,719.137329 
	C309.810852,706.532104 304.104340,694.119324 298.460419,681.687439 
	C297.232300,678.982239 295.892029,675.897888 293.682037,674.159668 
	C289.304199,670.716370 289.574066,666.410278 289.571991,661.707947 
	C289.560242,635.395325 289.268677,609.082642 289.279907,582.770081 
	C289.293243,551.467651 289.362274,520.163269 289.788757,488.864929 
	C289.866638,483.147217 287.893799,480.630341 282.555237,479.792999 
	C269.580658,477.757935 260.465729,469.989380 252.380081,460.123718 
	C231.222061,434.308014 227.121872,404.938202 234.635605,373.592743 
	C238.192688,358.753540 249.293930,350.102692 264.042664,346.745850 
	C268.729584,345.679047 270.170746,343.857697 269.883270,339.032440 
	C269.135223,326.478668 269.383514,326.463867 281.503693,325.591766 
	C289.848083,324.991364 290.075378,324.981537 289.707123,316.452759 
	C288.245605,282.602112 293.770660,250.137115 308.271210,219.336807 
	C327.701996,178.064255 357.285461,146.327652 397.223633,124.273026 
	C425.268219,108.786285 455.280090,99.088379 487.084442,95.922775 
	C543.707458,90.286858 596.512512,101.808868 643.682495,134.452072 
	C676.798889,157.369720 700.585510,188.288208 717.294006,224.809937 
	C725.104309,241.881805 730.444702,259.631714 732.963318,278.238403 
	C734.757751,291.495361 734.250061,304.824677 734.324036,318.136444 
	C734.366516,325.781830 734.346924,325.774933 741.763611,325.189667 
	C742.924988,325.098053 744.094299,325.108826 745.259460,325.061859 
	C749.426575,324.893890 751.839233,326.183289 751.430725,331.067688 
	C751.071899,335.359802 751.449463,339.714508 751.538208,344.040833 
	C751.544006,344.322388 751.861023,344.597565 752.036255,344.873871 
	C774.657959,346.298431 787.140747,358.228821 791.156372,383.086487 
	C793.479065,397.464569 792.707336,411.976807 791.104187,426.403961 
	C790.719421,429.866699 789.477417,433.261505 787.605347,436.235107 
	C778.531433,450.648285 768.631592,464.397430 754.998047,474.970215 
	C750.366455,478.561981 745.065613,480.082001 738.673462,479.650513 
	C739.480835,470.122040 743.239624,462.254730 749.501160,455.492950 
	C753.236694,451.459106 756.815918,447.350616 759.998657,442.817200 
	C770.275085,428.180176 769.709412,411.518341 769.973267,394.804413 
	C770.173279,382.138428 763.978577,373.778473 754.091919,367.255096 
	C753.287415,366.724274 752.340515,366.409149 751.058044,365.804352 
	C749.251587,372.663849 743.599670,372.652679 738.319214,373.188751 
	C730.546143,373.977875 722.768860,374.765930 714.975952,375.300446 
	C711.682983,375.526245 711.567261,377.462677 711.214844,379.978638 
	C706.874390,410.968536 690.698730,434.274567 662.741760,447.604980 
	C632.011902,462.257568 602.574280,457.149994 575.526489,436.685516 
	C556.278687,422.122589 546.785034,402.293762 543.260132,379.027557 
	C542.523987,374.168823 542.959412,369.339661 544.182068,364.659943 
	C544.883911,361.973236 544.086792,360.427063 542.295593,358.536346 
	C524.783997,340.051453 498.164764,343.251831 481.225098,358.688049 
	C479.513733,360.247498 479.114258,361.961731 479.520538,364.061676 
	C484.179535,388.141785 475.511932,408.258698 460.458221,426.168945 
	C444.032257,445.711823 422.155334,455.134583 397.208496,455.752869 
	C369.450592,456.440735 346.884399,444.674194 330.349579,422.169769 
	C320.920685,409.336761 314.661987,395.131317 313.706879,378.982391 
	C313.561249,376.519501 312.728302,375.197144 310.138214,375.365906 
	C309.806427,375.387543 309.464203,375.320007 309.139648,375.372772 
	C297.452118,377.272797 287.081879,372.875885 276.803558,368.390991 
	C273.667725,367.022675 271.238220,367.132599 268.473602,369.083801 
	C259.758850,375.234406 254.260544,382.510468 253.902985,394.149231 
	C253.168945,418.042572 258.453705,439.335999 275.585297,456.859039 
	C279.497528,460.860626 281.286530,466.182739 283.406586,471.264008 
	C284.326630,473.469147 284.820648,476.117493 287.765594,477.280945 
	C289.432922,474.625427 288.245819,471.709076 288.774414,469.066589 
	C291.360321,456.139526 287.296814,446.237823 277.179901,437.491852 
	C268.881104,430.317688 266.164978,419.984283 267.418121,408.818451 
	C268.277527,401.161133 272.260834,395.803986 279.437073,393.853485 
	C286.254486,392.000549 290.597382,388.995117 289.482269,380.831665 
	C294.829163,380.831665 299.452332,380.670441 304.058899,380.877899 
	C308.494659,381.077667 308.050720,384.834351 308.097931,387.621033 
	C308.309509,400.117004 308.290802,412.617126 308.319519,425.115814 
	C308.330261,429.800018 308.750122,434.482971 309.970520,438.957214 
	C314.494904,455.544769 324.188660,468.901672 336.741394,480.309418 
	C342.330170,485.388428 348.096558,490.366516 350.180939,497.933990 
	C351.898834,504.171112 353.233643,510.552795 354.178925,516.953064 
	C355.196747,523.844238 355.546051,530.833252 356.221375,537.776306 
	C356.544891,541.102234 355.897980,542.887146 351.837219,541.812256 
	C345.565094,540.152100 339.194702,538.862732 333.339172,535.931091 
	C330.413574,534.466309 327.312408,534.163879 324.108429,534.222778 
	C319.312286,534.310974 316.202759,536.522034 315.143280,541.272888 
	C312.562622,552.844604 315.404602,563.559082 319.708771,574.299194 
	C328.130096,595.312866 345.046295,605.235474 365.638916,610.500427 
	C379.202637,613.968323 392.907867,616.563477 407.066101,615.708923 
	C416.283508,615.152527 425.158936,613.082581 433.867096,610.252441 
	C437.422028,609.097046 439.400177,609.282776 441.183289,613.212219 
	C447.580231,627.308716 458.481384,635.403687 474.276428,635.547791 
	C481.193207,635.610962 487.604767,632.747559 493.815643,629.910645 
	C506.632172,624.056763 519.255615,624.572388 531.960327,630.268860 
	C537.245972,632.638794 542.460876,635.131531 548.443726,635.766663 
	C561.465820,637.148987 580.139160,625.026184 585.946106,611.671570 
	C587.489868,608.121277 589.209290,607.758179 592.357544,608.560486 
	C606.483887,612.160339 620.863647,614.144592 635.385620,612.592957 
	C655.164490,610.479614 674.284790,605.994873 688.991516,591.179321 
	C699.329773,580.764526 704.420349,567.663940 706.616211,553.366638 
	C707.290771,548.974976 708.417969,544.600525 706.774902,540.062134 
	C704.363647,533.401611 700.170227,531.313965 693.554993,533.971558 
	C686.909302,536.641357 680.225769,539.181824 673.199707,540.702454 
	C671.256653,541.122986 669.332825,541.763000 667.108643,540.438904 
	C669.413818,523.629822 670.365295,506.536438 675.494812,490.091125 
	C677.066528,485.052185 680.229553,481.474731 684.396240,478.428925 
	C701.977783,465.576752 711.332825,447.542542 716.094849,426.852722 
	C717.713257,419.821136 716.257141,412.574890 716.060242,405.426117 
	C715.899719,399.596069 715.816284,393.767700 716.786682,387.974792 
	C717.655640,382.787231 721.452942,382.002380 725.695374,381.968262 
	C729.818787,381.935120 734.497742,381.195312 735.232117,387.219330 
	C735.512146,389.516388 736.839355,390.632050 738.643799,391.740326 
	C741.474976,393.479279 744.352234,395.252686 746.826904,397.444061 
	C758.644531,407.908875 760.018188,417.014832 752.052795,431.652161 
	C748.189270,438.751923 743.089417,445.334869 735.611206,449.425751 
	C733.993652,450.310669 732.527588,451.514160 732.736023,453.717804 
	C733.930664,466.347595 733.182129,479.006409 733.333435,491.652039 
	C733.385254,495.980621 733.710999,500.305969 733.913330,505.099762 
M543.933533,329.423615 
	C554.823608,335.612823 554.824341,335.613708 564.147888,327.516113 
	C580.064087,313.692657 598.286194,305.286346 619.465942,303.430176 
	C643.206116,301.349548 665.656799,305.203857 685.961609,318.059082 
	C691.350403,321.470795 696.595459,322.291779 702.517395,321.501953 
	C704.496582,321.237976 706.477478,320.794250 708.459045,320.786194 
	C711.408386,320.774200 712.686035,319.539185 712.634216,316.567566 
	C712.306580,297.774902 712.408997,279.017731 706.886841,260.678253 
	C693.834229,217.329590 670.416626,180.892441 633.518494,154.496033 
	C583.105774,118.431404 526.400085,109.097618 466.550171,121.740562 
	C400.496887,135.693924 352.630920,173.466187 325.145935,235.992218 
	C314.571869,260.047333 311.419678,285.159027 312.242859,311.094421 
	C312.559540,321.071503 312.319977,321.071472 321.926025,321.811615 
	C323.085266,321.900940 324.247070,322.064362 325.385193,322.301544 
	C329.661499,323.192780 333.484039,322.613800 337.172424,319.925964 
	C352.016113,309.108887 368.955048,303.851776 387.059418,302.843842 
	C417.814514,301.131622 445.578644,308.422913 467.286285,331.897156 
	C469.874786,334.696320 472.101379,334.756744 475.069916,332.882812 
	C485.182617,326.498962 496.271820,323.286530 508.216644,323.451782 
	C520.155945,323.616943 532.299438,322.797180 543.933533,329.423615 
M399.410156,325.341217 
	C388.789124,325.081757 378.518646,326.668365 368.828339,331.223297 
	C359.085968,335.802704 349.021606,340.829315 344.232758,350.736267 
	C330.754028,378.620483 338.788452,406.822906 364.980011,423.981598 
	C388.085846,439.118744 419.138306,434.854675 439.046692,415.637787 
	C456.009125,399.264526 461.767578,372.387451 450.416748,353.460999 
	C439.409912,335.108154 421.681824,326.463837 399.410156,325.341217 
M626.843140,325.381927 
	C615.343201,326.031036 604.654663,329.689056 594.388611,334.565247 
	C571.909241,345.242493 562.636353,367.413605 570.600952,390.895508 
	C582.142761,424.923889 618.483398,441.450562 651.865601,427.852509 
	C681.600830,415.739990 695.259583,379.659576 679.598145,352.750549 
	C668.215637,333.193481 650.425293,324.320679 626.843140,325.381927 
M519.268616,854.556152 
	C521.213257,851.882324 520.808350,848.788513 520.548767,845.851990 
	C519.710815,836.373108 519.776917,826.878601 519.865173,817.388306 
	C520.114441,790.574951 519.870056,763.763062 520.374451,736.944275 
	C520.752930,716.819153 519.659546,696.660950 520.626465,676.518066 
	C520.714233,674.688904 520.699402,672.852173 519.934570,671.113770 
	C518.490967,667.832764 516.161743,665.142883 512.475525,665.592041 
	C508.590790,666.065491 505.902557,668.702454 505.408783,672.895813 
	C505.234436,674.376282 505.323425,675.891052 505.336304,677.389771 
	C505.549316,702.205444 505.463196,727.021057 505.751007,751.839050 
	C506.125610,784.143616 505.510162,816.460388 505.219696,848.770996 
	C505.184326,852.707520 505.701172,856.180420 509.567322,858.056641 
	C513.445374,859.938660 516.236694,857.774048 519.268616,854.556152 
M612.666992,731.500061 
	C612.667908,721.169006 612.652771,710.837891 612.674561,700.506897 
	C612.693542,691.509460 612.870239,682.510559 612.750366,673.515320 
	C612.685120,668.612366 609.270630,665.159302 605.170593,665.283691 
	C601.060303,665.408386 598.247742,668.461731 598.094055,673.350525 
	C597.952759,677.843994 598.121033,682.346558 598.119324,686.845154 
	C598.107239,719.337158 598.082092,751.829102 598.078186,784.321106 
	C598.077942,786.471130 597.715210,788.766235 598.944275,790.666260 
	C600.660522,793.319580 603.074097,795.430115 606.419983,794.332336 
	C610.012634,793.153625 612.810791,791.101318 612.772583,786.487427 
	C612.623596,768.492615 612.685303,750.496033 612.666992,731.500061 
M427.742249,760.500000 
	C427.729950,734.697693 427.714142,708.895447 427.709229,683.093140 
	C427.708496,679.266113 428.034088,675.416321 427.720642,671.617371 
	C427.263062,666.071594 422.557953,663.767883 417.562866,666.235779 
	C413.822235,668.083801 413.171295,671.258545 413.182800,674.984070 
	C413.246643,695.625793 413.232758,716.267761 413.253204,736.909607 
	C413.268524,752.390991 413.253937,767.872559 413.341492,783.353577 
	C413.369232,788.254944 416.984711,792.599304 420.680237,792.535400 
	C424.792267,792.464294 427.850922,788.664368 427.852173,783.472717 
	C427.853943,776.148499 427.778137,768.824219 427.742249,760.500000 
M643.296082,697.500000 
	C643.205994,710.812622 643.137024,724.125488 643.015869,737.437866 
	C642.965027,743.026367 646.906128,747.753845 651.582336,747.573486 
	C656.317017,747.390869 658.955688,743.772522 658.938293,737.758789 
	C658.862244,711.476562 658.220154,685.191833 659.450012,658.914673 
	C659.664368,654.333679 656.760437,651.497375 652.669434,650.057373 
	C648.899231,648.730347 646.921448,651.607666 644.804993,653.935974 
	C642.926453,656.002625 643.215332,658.582886 643.214600,661.051880 
	C643.211121,672.867920 643.260376,684.683960 643.296082,697.500000 
M552.891541,806.275757 
	C557.159424,811.206421 560.648560,809.321716 564.370544,805.854919 
	C566.431641,803.935120 565.776001,801.189880 565.775452,798.740723 
	C565.769287,772.127991 565.232971,745.510803 566.162354,718.906067 
	C566.392090,712.329163 563.573914,706.867615 558.947754,706.451233 
	C554.441589,706.045654 551.281433,710.678528 551.259949,717.679749 
	C551.176453,744.960144 551.088440,772.240479 550.990967,799.520874 
	C550.983215,801.693420 550.864258,803.871704 552.891541,806.275757 
M459.289673,798.890869 
	C460.227509,803.871460 463.487183,807.042053 467.342529,806.723694 
	C471.602997,806.371826 474.696075,802.674438 474.633209,797.694885 
	C474.504974,787.539856 473.875214,777.375427 474.163696,767.235107 
	C474.471649,756.410522 474.682831,745.594421 474.556427,734.769409 
	C474.551941,734.385193 474.219360,734.004700 474.032410,733.606995 
	C472.804871,734.120178 473.219299,736.135742 471.348907,735.830444 
	C469.259247,733.287537 468.279541,730.380005 469.852936,727.177917 
	C471.216034,724.403870 472.817474,727.433899 474.565948,727.417847 
	C474.565948,723.104919 474.908386,718.929199 474.472260,714.836487 
	C474.011078,710.508789 470.911438,708.084167 466.744263,707.559326 
	C463.506348,707.151428 459.799805,711.158752 459.336914,715.049377 
	C459.219208,716.038879 459.206818,717.045288 459.207275,718.043884 
	C459.219391,744.698181 459.239502,771.352539 459.289673,798.890869 
M366.297089,705.499390 
	C366.277283,716.482422 366.201569,727.465820 366.262817,738.448425 
	C366.290741,743.453308 369.977295,746.900757 374.798401,746.731323 
	C379.254456,746.574707 381.941711,743.512695 381.670135,738.265869 
	C380.671936,718.978149 380.928406,699.676514 380.824280,680.378479 
	C380.785706,673.223694 380.882263,666.065613 380.689362,658.915161 
	C380.568085,654.420410 377.423859,651.051208 373.879242,651.086060 
	C370.337921,651.120850 366.934418,654.481323 366.411041,658.575073 
	C366.243164,659.888184 366.299957,661.233459 366.299225,662.564026 
	C366.291382,676.542480 366.292725,690.520935 366.297089,705.499390 
M708.938110,355.900146 
	C712.132812,357.299683 715.502930,356.841339 718.783081,356.606720 
	C724.031738,356.231354 725.924622,353.199249 725.909912,347.267792 
	C725.895752,341.547272 722.091797,341.995514 718.410278,342.011536 
	C716.251526,342.020935 714.094849,342.266479 711.935303,342.360046 
	C708.074829,342.527405 705.857727,344.723053 704.743958,348.212006 
	C703.628296,351.706635 705.309509,353.944702 708.938110,355.900146 
M299.405090,347.911530 
	C299.444153,355.527100 306.592346,359.801331 313.913361,356.586639 
	C318.115753,354.741333 319.532288,351.379608 318.587097,346.330872 
	C317.759003,341.907562 314.531067,342.261658 311.346741,342.305450 
	C309.692078,342.328217 308.026489,342.431946 306.384003,342.289459 
	C302.683563,341.968323 300.314850,343.403809 299.405090,347.911530 
z"/>
<path fill="white" opacity="1.000000" stroke="none" 
	d="
M432.339172,523.257263 
	C445.176056,516.013977 458.364258,511.445435 472.973969,511.583832 
	C478.093628,511.632355 483.106049,512.221375 487.466217,514.716064 
	C503.044952,523.629700 518.749817,523.150208 534.193176,515.108154 
	C551.752930,505.963928 568.367249,510.824280 584.419861,518.258606 
	C597.873596,524.489319 609.068298,534.647156 621.598267,542.560303 
	C630.209351,547.998535 638.981323,553.185120 648.969727,555.607361 
	C662.705322,558.938416 675.703918,556.053711 688.210938,550.124023 
	C689.845764,549.348877 691.340515,548.191467 693.406494,548.327515 
	C694.903992,549.884033 694.197815,551.657043 693.814148,553.384827 
	C688.427856,577.636230 672.924377,591.840820 649.216003,597.198181 
	C627.684570,602.063782 606.565247,599.434570 585.946594,591.941101 
	C561.273071,582.973877 539.837402,568.280701 518.441528,553.572510 
	C514.924744,551.154907 512.822266,550.138794 509.438202,553.894409 
	C504.249969,559.652222 496.883148,562.558105 490.345978,566.508789 
	C473.675354,576.583557 457.221130,587.141113 438.792725,593.844177 
	C425.135742,598.811646 411.101898,602.581848 396.405487,602.149231 
	C369.852539,601.367676 347.654236,592.114624 333.486755,568.282959 
	C329.866547,562.193359 328.171997,555.487305 328.778717,548.493042 
	C330.790253,547.105347 332.387024,547.899414 333.785767,548.674683 
	C360.938904,563.725098 385.173981,555.103699 408.473663,539.422974 
	C416.342072,534.127502 423.677307,528.044739 432.339172,523.257263 
z"/>
<path fill="white" opacity="1.000000" stroke="none" 
	d="
M836.185669,587.088135 
	C820.392334,622.046448 800.797302,654.269592 777.437866,684.198181 
	C774.576660,687.864014 771.437622,691.313660 766.056641,691.399963 
	C757.142273,691.542908 751.901245,684.030457 755.437256,675.759521 
	C756.144104,674.106140 757.146545,672.451965 758.399109,671.178223 
	C777.360718,651.895569 789.593506,628.125305 802.515503,604.855652 
	C821.750305,570.218140 832.325745,532.614014 838.332153,493.782806 
	C842.743652,465.262268 842.985229,436.511444 838.973206,407.748901 
	C836.114868,387.256744 831.625000,367.214203 825.513184,347.487366 
	C816.212830,317.468872 801.323364,290.227325 784.462891,263.903839 
	C775.642273,250.132721 766.809021,236.440674 754.959167,224.991364 
	C753.135437,223.229324 752.034912,220.940308 751.055115,218.639297 
	C748.642883,212.974243 750.368958,206.211868 754.850464,203.487183 
	C759.821045,200.465134 766.086731,201.279617 770.126587,206.301712 
	C777.431396,215.382629 784.683594,224.547348 791.307129,234.126938 
	C810.483521,261.861267 827.637329,290.757355 839.952576,322.294708 
	C849.677368,347.198334 856.094666,372.909760 859.495361,399.453156 
	C861.929199,418.450500 863.784546,437.427673 863.408875,456.610199 
	C862.606628,497.571960 855.338440,537.272949 840.704285,575.580383 
	C839.279053,579.311279 837.788269,583.017151 836.185669,587.088135 
z"/>
<path fill="white" opacity="1.000000" stroke="none" 
	d="
M250.296082,649.733521 
	C255.684006,657.621765 261.586609,664.586853 268.273499,670.921204 
	C273.690643,676.052673 273.542297,683.625549 268.195831,688.599365 
	C263.378967,693.080383 254.427185,692.654907 250.321518,687.259888 
	C218.272003,645.145874 190.033218,600.912964 175.495880,549.321777 
	C165.698868,514.553406 159.855118,479.141632 160.875900,442.915680 
	C162.401566,388.771210 174.281525,337.080200 199.115448,288.684906 
	C209.024521,269.374512 220.845963,251.253464 233.974716,233.966202 
	C240.519867,225.347916 246.636459,216.403137 253.220123,207.815506 
	C257.408234,202.352600 262.310547,201.093536 267.104889,203.510498 
	C271.586700,205.769882 273.853668,211.917862 272.387329,217.881821 
	C271.186646,222.765396 268.134979,226.498734 264.707764,229.950485 
	C251.211563,243.543427 241.038010,259.565674 231.224533,275.831116 
	C219.145599,295.851501 208.824600,316.756683 201.413773,338.954437 
	C188.500824,377.632690 181.694580,417.336456 183.419296,458.204285 
	C185.057266,497.016571 191.852356,534.933411 206.335526,571.107422 
	C217.521042,599.044983 232.365967,625.081665 250.296082,649.733521 
z"/>
<path fill="white" opacity="1.000000" stroke="none" 
	d="
M460.917480,480.609680 
	C460.769684,478.342133 460.718689,476.512421 460.634216,474.684204 
	C460.267151,466.741272 460.263580,466.740326 468.474640,466.727905 
	C471.637421,466.723145 474.804321,466.826447 477.961914,466.698090 
	C482.126770,466.528870 484.572266,468.390411 484.052307,472.559845 
	C483.239349,479.078766 485.662476,483.269531 491.597626,486.006500 
	C494.262451,487.235352 496.552551,489.361694 498.859863,491.265869 
	C507.609955,498.487274 519.272949,496.103607 525.876770,491.585876 
	C530.124084,488.680298 533.984253,485.203369 538.904175,483.330719 
	C540.807556,482.606262 541.554749,480.884796 541.595947,478.909180 
	C541.641052,476.746338 541.802979,474.562531 541.580811,472.422455 
	C541.125793,468.041077 542.971924,466.464478 547.302185,466.620056 
	C551.943970,466.786774 556.608337,466.422424 561.258850,466.204956 
	C563.554749,466.097595 565.633423,466.592712 565.178162,469.300385 
	C563.942200,476.651672 564.846558,484.288208 562.159729,491.436737 
	C559.632690,498.160217 558.369629,499.427551 551.170166,499.185913 
	C545.268738,498.987854 541.147583,500.190338 537.435913,505.600769 
	C533.322998,511.596039 525.774170,512.953674 518.829041,514.081055 
	C510.969513,515.356873 503.257172,514.262085 495.756317,511.623108 
	C492.352356,510.425537 489.356171,508.543884 487.556396,505.421631 
	C485.266022,501.448303 481.978912,500.263306 477.591156,500.256714 
	C465.737000,500.238922 465.425507,499.894501 462.489746,488.365082 
	C461.876282,485.955811 461.489929,483.488678 460.917480,480.609680 
z"/>
<path fill="white" opacity="1.000000" stroke="none" 
	d="
M554.427002,593.551392 
	C557.078552,595.263733 559.860779,596.136597 561.932190,598.551941 
	C559.027771,602.642212 554.397583,603.077332 550.384338,603.073059 
	C523.923889,603.045044 497.465454,605.329346 471.004181,603.263367 
	C470.672119,603.237427 470.317871,603.269714 470.012421,603.163879 
	C467.432098,602.269470 463.459900,602.701050 462.967102,599.492432 
	C462.490204,596.387634 466.314972,595.760010 468.574158,594.763245 
	C476.123627,591.432373 482.372894,586.080505 489.313293,581.815552 
	C492.350830,579.948975 495.481964,579.118652 498.823761,579.830994 
	C508.001526,581.787537 517.072998,580.173157 526.124878,579.125854 
	C531.279358,578.529358 535.672485,579.400635 539.576843,582.820374 
	C544.096680,586.779175 548.911377,590.343262 554.427002,593.551392 
z"/>
<path fill="white" opacity="1.000000" stroke="none" 
	d="
M401.845764,342.913025 
	C409.443878,343.493805 416.565094,344.108154 423.693726,344.620026 
	C434.028412,345.362091 439.790649,350.020020 442.600952,360.024994 
	C444.066864,365.243835 441.732910,367.812317 436.420105,366.383820 
	C432.587921,365.353455 428.932739,363.669586 425.189819,362.301270 
	C419.848724,360.348755 418.996887,360.858276 418.210236,366.413116 
	C417.041565,374.665924 410.383850,380.625244 401.791748,381.109375 
	C394.305145,381.531219 387.046082,375.557281 385.049500,367.500610 
	C384.616486,365.753174 385.139893,363.795471 383.760620,362.031677 
	C379.928406,361.693268 376.377747,363.091461 372.971039,364.761047 
	C369.181152,366.618378 365.213867,366.636353 361.254944,366.125427 
	C356.854950,365.557556 355.214203,362.868286 356.727905,358.681213 
	C360.057739,349.470764 368.089020,346.540619 376.578278,344.832123 
	C384.723083,343.192963 393.066895,343.046356 401.845764,342.913025 
z"/>
<path fill="white" opacity="1.000000" stroke="none" 
	d="
M613.402710,344.073853 
	C626.756348,344.055267 639.847290,341.586029 652.349854,346.723724 
	C658.561157,349.276215 664.466553,352.442078 667.909119,358.595978 
	C670.776733,363.721954 669.395142,365.746216 663.669006,366.419342 
	C657.168274,367.183502 651.719971,364.002716 645.835510,362.433105 
	C639.295959,360.688721 639.224609,360.749725 638.310730,367.532074 
	C637.375488,374.472473 630.153442,380.454926 621.843933,381.172546 
	C614.896118,381.772614 607.754761,376.987671 605.665833,370.332672 
	C603.325134,362.875702 603.325867,362.879913 595.675842,364.244232 
	C593.712463,364.594391 591.753174,365.004150 589.773987,365.222687 
	C583.021851,365.968231 581.286194,363.950958 582.859924,357.278778 
	C584.180481,351.680328 587.967163,348.658691 593.230347,346.848450 
	C599.654724,344.638855 606.358032,344.944977 613.402710,344.073853 
z"/>
</svg>