<?xml version="1.0" encoding="UTF-8"?>
<svg id="Layer_2" data-name="Layer 2" xmlns="http://www.w3.org/2000/svg" viewBox="0 0 920.66 1518.59">
  <defs>
    <style>
      .cls-1 {
        fill: none;
        stroke: #0f0f0f;
        stroke-linecap: round;
        stroke-width: 25px;
      }

      .cls-1, .cls-2 {
        stroke-miterlimit: 10;
      }

      .cls-3, .cls-4, .cls-5 {
        stroke-width: 0px;
      }

      .cls-4 {
        fill: #fff;
      }

      .cls-2 {
        stroke: #fff;
        stroke-width: 20px;
      }

      .cls-5 {
        fill: #fdfdfd;
      }
    </style>
  </defs>
  <g id="Layer_1-2" data-name="Layer 1">
    <g>
      <g>
        <g>
          <path class="cls-3" d="M884.16,442.91c-30.66-115.63-100.69-198.9-209.78-248.55-53.67-24.42-110.45-36.63-169.19-39.47-66.38-3.2-132.38-.93-197,16.85-90.8,24.98-166.22,72.31-219.65,151.45-30.06,44.54-48.74,93.77-58.03,146.42-7.9,44.81-8.81,90.06-4.15,135.34,1.56,15.18,2.15,30.64,6.41,45.32,2.84,9.75,4.3,19.46,4.29,29.4-.12,60.1-.7,120.21,1.54,180.3,2.35,63.15,6.09,126.19,15.34,188.77,6.07,41.14,14.12,81.84,29.39,120.75,3.05,7.77,6.42,15.38,10.32,22.68,4.91,9.2,10.66,17.91,17.68,25.87,2.16,2.45,4.05,5.86,8.6,4.28,4.37-1.52,7.24-4.24,7.98-8.75.68-4.13.91-8.34,1.39-12.51.05-.44.1-.89.16-1.33.35-2.72-.09-5.66,1.95-9.26.92,2.88,1.5,4.6,2.03,6.34.95,3.1,1.9,6.2,2.85,9.3,5.31,17.3,10.88,34.52,19.84,50.4,1.86,3.31,3.83,6.53,5.88,9.67,20.45,31.39,49.43,55.02,76.77,80.05,6.83,6.25,16.86,1.11,17.66-8.27.6-7,.92-14.03,1.5-23.05,9.19,14.94,17.18,28.19,25.44,41.27,21.08,33.37,42.6,66.36,71.13,94.17,15.28,14.89,31.6,28.24,48.95,40.13,13.91,9.53,28.49,18.12,43.72,25.81,4.58,2.31,8.93,3.3,13.89.97,16.29-7.65,31.94-16.19,46.88-25.7,26.76-17.03,51.27-37.17,73.21-60.88,27.41-29.63,49.17-63.39,70.75-97.28,3.66-5.75,7.3-11.51,10.95-17.26.64.13,1.29.26,1.94.39,0,4.98.01,9.97,0,14.95-.01,5.58,1.94,10.08,7.39,12.24,5.19,2.06,9.36.03,13.24-3.57,13.62-12.64,27.3-25.21,41.06-37.68,11.16-10.12,21-21.05,29.43-32.84,13.18-18.41,22.94-38.92,28.97-61.75.49-1.87,1.05-3.73,1.64-5.58h0c1.13-3.62,2.39-7.19,3.54-10.79.46.04.93.07,1.4.11.26,2.42.5,4.85.73,7.27.44,4.27.88,8.53,1.46,12.78.65,4.79,3.56,8.19,8.21,9.4,4.65,1.2,8.7-.53,11.78-4.18,1.34-1.58,2.36-3.43,3.49-5.18,4-6.17,7.46-12.58,10.55-19.16,4.96-10.56,8.98-21.54,12.78-32.62,13.59-39.67,21.58-80.62,27.68-121.99,8.38-56.81,12.49-114.02,14.97-171.35,1.41-32.6,2.58-65.23,2.83-97.86.37-48.65-.64-97.14,7.18-145.63,9.73-60.36,6.73-121-8.96-180.19ZM809.87,896.1c37.15,28.45,49.65,84.12,28.06,125.55-14.54,27.9-38.46,45.25-66.36,57.88-38.9,17.62-79.88,21.57-121.88,17.91-47.56-4.15-93.13-15.73-135.69-37.86-18-9.36-34.65-20.74-49.56-34.56-2.16-2-3.4-3.49-6.64-.63-43.37,38.28-95.07,58.61-151.15,69.05-40.84,7.59-81.7,8.3-122.37-1.38-28.15-6.7-54-18.23-75.68-37.85-46.62-42.2-46.42-124.14,6.32-160.23,2.22-1.52,4.01-2.95,3.14-6.16-11.72-42.8-16.8-86.94-26.05-130.22-.35-1.65-.72-3.3-1.09-4.94-.08-.35-.16-.69-.24-1.03-.31-1.34-.62-2.68-.94-4.02-.08-.35-.17-.7-.25-1.04-.39-1.61-.79-3.21-1.19-4.81-.03-.11-.06-.22-.08-.33-.42-1.64-.84-3.28-1.27-4.92-.46-1.76-.92-3.5-1.4-5.25-.42-1.58-.85-3.15-1.28-4.73-.19-.67-.37-1.33-.55-2-.64-2.29-1.28-4.58-1.93-6.87-1.19-4.19-2.39-8.37-3.58-12.55-.5-1.74-1-3.48-1.49-5.23-.63-2.18-1.24-4.36-1.85-6.54-.46-1.63-.92-3.27-1.36-4.91-.45-1.63-.9-3.27-1.34-4.91-.89-3.28-1.75-6.56-2.58-9.85-.31-1.24-.62-2.49-.93-3.73-1.72-7-3.31-13.99-4.76-20.97-.2-.95-.4-1.91-.59-2.86-.2-.97-.39-1.94-.58-2.91-.25-1.27-.5-2.54-.74-3.81-.24-1.27-.48-2.54-.71-3.81-.23-1.26-.46-2.53-.68-3.8-.22-1.22-.43-2.43-.63-3.64-.02-.1-.04-.21-.06-.31-.2-1.22-.4-2.44-.59-3.66-.18-1.06-.34-2.11-.5-3.17-.25-1.56-.48-3.11-.71-4.67-.17-1.18-.34-2.36-.5-3.54-.17-1.27-.34-2.53-.51-3.8-.16-1.24-.32-2.49-.47-3.74-.2-1.52-.37-3.04-.54-4.55-.12-1.02-.23-2.04-.34-3.06-.14-1.27-.27-2.53-.39-3.79-.11-.99-.2-1.97-.29-2.96-.1-1.1-.2-2.2-.3-3.29-.12-1.43-.24-2.86-.35-4.3-.09-1.21-.18-2.42-.26-3.62-.06-.8-.11-1.59-.16-2.38-.13-2.03-.25-4.05-.35-6.07-.06-1.06-.11-2.13-.15-3.19-.03-.71-.06-1.43-.09-2.14-.03-.73-.06-1.46-.08-2.19-.07-1.98-.12-3.94-.16-5.91,0-.46-.02-.92-.03-1.37-.02-1.12-.04-2.24-.04-3.35-.66-63.91,12.77-126.52,44.63-187.17,37.13-70.69,95.57-118.64,168.91-148.82,59.68-24.56,122.27-33.41,186.41-33.2,2.33,0,4.65,0,6.97,0,59.18-1.11,117.22,5.84,173.13,25.94,86.84,31.23,153.72,86.01,195.56,169.18,27.97,55.6,39.27,115.13,39.48,177.11.12,32.39-3.29,64.57-7.79,96.44-.08.59-.17,1.17-.26,1.76-.09.58-.18,1.16-.28,1.75-.48,2.93-1.06,5.85-1.71,8.77-.13.59-.26,1.17-.41,1.75-.26,1.12-.54,2.24-.82,3.35-.17.63-.33,1.26-.51,1.89-.15.58-.31,1.15-.48,1.73-.16.58-.33,1.16-.5,1.74-.13.44-.26.88-.4,1.32-.21.73-.44,1.46-.67,2.19-.26.83-.53,1.66-.81,2.48-.32,1-.66,2-1.02,3-.21.61-.43,1.22-.66,1.82-.52,1.46-1.07,2.91-1.64,4.36-.37.96-.76,1.92-1.15,2.87-.48,1.19-.98,2.37-1.49,3.54s-1.03,2.34-1.56,3.51c-.52,1.13-1.05,2.27-1.59,3.39-.56,1.18-1.14,2.35-1.73,3.52-8.74,17.33-11.71,36.13-15.89,54.62-9.39,41.56-8.91,84.83-21.3,125.9-1.37,4.52,1.53,6.12,4.35,8.28Z"/>
          <path class="cls-3" d="M797.24,1432.74c-16.1,10.15-33.97,15.15-52.15,19.21l-.09.02-104.53,27.53h-.02l-4.44,1.17c-26.93,7.42-54.24,13.21-82.02,16.97-.34.04-.74-.33-1.75-.81,3.95-3.29,7.81-6.45,11.61-9.62,1.84-1.54,3.67-3.08,5.49-4.63,34.91-29.81,62.97-65.47,87.94-103.7,3.05-4.67,5.33-7.03,11.82-5.36,12.85,3.31,24.29-1.74,33.86-10.08,22.05-19.23,43.98-38.64,63.45-60.53,1.86-2.07,3.68-4.16,5.48-6.28,2.46-2.9,3.54-2.6,5.25.55,5.61,10.27,11.01,20.64,16.1,31.14,8.67,17.86,16.46,36.12,22.91,54.94,7.02,20.49-.13,37.64-18.91,49.48Z"/>
          <path class="cls-3" d="M360.27,1494.9c-1.57,2.42-3.5,1.14-4.99.9-24.6-4-48.84-9.45-72.78-16.18l-1.47-.38-100.08-26.13v-.03c-14.34-3.09-28.48-6.9-42.12-12.74-3.61-1.55-7.14-3.35-10.5-5.38-24.16-14.64-30.21-32.8-20.09-59.12,6.64-17.28,13.94-34.24,22.02-50.85,4.28-8.83,8.79-17.56,13.52-26.18.65-1.19,1.09-2.62,3.03-3.13,1.68,2.08,3.39,4.14,5.13,6.17,18.65,21.86,40.1,41.15,61.07,60.94,10.73,10.13,23.02,18.04,37.93,14.48,10.33-2.47,12.98,2.98,17.05,9.36,23.17,36.36,49.09,70.44,81.49,99.12,3.52,3.12,7.11,6.17,10.79,9.15Z"/>
          <path class="cls-5" d="M826.82,761.92c4.18-18.49,7.15-37.29,15.89-54.62,8.69-17.24,15.05-36.01,17.69-54.74,4.5-31.87,7.91-64.05,7.79-96.44-.21-61.98-11.51-121.51-39.48-177.11-41.84-83.17-108.72-137.95-195.56-169.18-55.91-20.1-113.95-27.05-173.13-25.94-2.32,0-4.64,0-6.97,0-64.14-.21-126.73,8.64-186.41,33.2-73.34,30.18-131.78,78.13-168.91,148.82-51.67,98.37-54.87,201.92-28.14,307.76,7.09,28.08,16.37,55.65,22.42,83.93,9.25,43.28,14.33,87.42,26.05,130.22.87,3.21-.92,4.64-3.14,6.16-52.74,36.09-52.94,118.03-6.32,160.23,21.68,19.62,47.53,31.15,75.68,37.85,40.67,9.68,81.53,8.97,122.37,1.38,56.08-10.44,107.78-30.77,151.15-69.05,3.24-2.86,4.48-1.37,6.64.63,14.91,13.82,31.56,25.2,49.56,34.56,42.56,22.13,88.13,33.71,135.69,37.86,42,3.66,82.98-.29,121.88-17.91,27.9-12.63,51.82-29.98,66.36-57.88,21.59-41.43,9.09-97.1-28.06-125.55-2.82-2.16-5.72-3.76-4.35-8.28,12.39-41.07,11.91-84.34,21.3-125.9ZM818.46,961.05c4.71,24.55-4.94,45.17-20.84,63.08-21.89,24.64-49.6,38.64-82.27,42.4-62.55,7.2-122.76-1.26-179.78-28.6-29.96-14.36-55.91-33.88-74.55-63.09-28.76,42.86-70.44,65.41-117.41,79.7-49.64,15.1-100.28,19.44-151.39,9.34-32.27-6.39-58.34-23.79-76.78-51.26-27.22-40.55-10.37-88.91,35.98-104.48,6.82-2.29,13.77-4.21,20.97-4.93,6.58-.66,11.34,2.52,12.65,8.23,1.45,6.29-1.24,11.09-7.89,13.45-7.44,2.64-14.85,5.26-21.31,9.99-13.48,9.86-13.87,25.99-.82,36.52,12.36,9.98,26.32,10.68,40.9,6.63,17.65-4.9,32.36-14.99,45.61-27.23,16.54-15.27,32.04-31.73,49.25-46.16,27.22-22.83,57.96-39.22,93.86-43.74,25.01-3.15,60.97,9.96,75.75,30.87,29.91-30.69,66.69-39.23,107.03-29.81,25.07,5.85,46.58,20.03,64.14,39.69,18.68,20.91,38.15,41.14,60.11,58.69,12.42,9.93,26.19,17.67,42.1,20.69,11.34,2.14,22.2,1.13,31.98-5.7,11.4-7.95,13.42-21.08,4.94-32.15-6.89-9-16.67-13.78-26.62-18.33-6.55-2.99-8.97-7.72-7.1-13.92,1.6-5.31,5.34-8.43,10.88-7.84,36.8,3.92,64.34,25.28,70.61,57.96Z"/>
          <path class="cls-3" d="M461.03,974.84c-28.77,42.87-70.44,65.41-117.41,79.7-49.64,15.1-100.28,19.45-151.39,9.34-32.27-6.38-58.34-23.78-76.78-51.26-27.22-40.55-10.37-88.91,35.98-104.48,6.82-2.29,13.78-4.21,20.97-4.93,6.58-.66,11.34,2.52,12.65,8.23,1.45,6.29-1.24,11.09-7.9,13.45-7.44,2.64-14.85,5.26-21.31,9.99-13.48,9.86-13.87,26-.82,36.53,12.36,9.97,26.32,10.68,40.9,6.63,17.66-4.9,32.37-14.99,45.62-27.23,16.53-15.27,32.03-31.73,49.25-46.17,27.22-22.83,57.96-39.22,93.86-43.73,25.02-3.15,60.97,9.96,75.76,30.87,29.91-30.69,66.68-39.23,107.03-29.81,25.07,5.85,46.58,20.03,64.14,39.69,18.68,20.91,38.15,41.15,60.11,58.7,12.42,9.93,26.19,17.67,42.1,20.68,11.34,2.15,22.2,1.13,31.98-5.7,11.4-7.95,13.41-21.08,4.94-32.15-6.89-8.99-16.67-13.77-26.62-18.32-6.55-2.99-8.96-7.72-7.1-13.92,1.6-5.31,5.34-8.44,10.88-7.85,36.8,3.92,64.35,25.28,70.62,57.96,4.71,24.54-4.94,45.16-20.84,63.07-21.89,24.65-49.6,38.65-82.27,42.41-62.55,7.2-122.76-1.27-179.79-28.6-29.96-14.36-55.91-33.88-74.54-63.09Z"/>
          <path class="cls-3" d="M465.37,657.68s-2.33-.54-3.52-.54h-1.44c-1.2,0-2.39.18-3.54.55l-33.03,10.43-67.98-81.59c-10.02-12.03-24.87-18.98-40.52-18.98h-127.01c-16.33,0-31.74,7.56-41.73,20.48l-63.34,81.91h-31.88v23.4h30.61l73.07,137.06c9.17,17.19,27.06,27.93,46.54,27.93h119.94c21.03,0,40.06-12.5,48.41-31.8l58.55-135.34,27.03-8.54c3.64-1.15,7.55-1.15,11.19,0h0s27.02,8.54,27.02,8.54l58.54,135.33c8.35,19.31,27.37,31.8,48.41,31.8h119.95c19.48,0,37.38-10.74,46.54-27.93l73.07-137.06h30.61v-23.4h-31.88l-63.34-81.91c-9.99-12.92-25.4-20.48-41.73-20.48h-127.01c-15.65,0-30.5,6.95-40.52,18.98l-67.98,81.59-33.04-10.44ZM306.17,834.93h-90.53c-19.48,0-37.38-10.74-46.54-27.93l-50.17-94.09c-9.77-18.32-7.88-40.66,4.82-57.08l34.34-44.4c9.99-12.92,25.4-20.48,41.72-20.48h104.57c15.65,0,30.5,6.95,40.52,18.98l40.62,48.75c12.74,15.29,15.79,36.44,7.89,54.71l-38.83,89.74c-8.35,19.3-27.37,31.8-48.41,31.8ZM706.6,834.93h-90.53c-21.03,0-40.06-12.5-48.41-31.8l-38.83-89.74c-7.9-18.26-4.85-39.42,7.89-54.71l40.62-48.75c10.02-12.03,24.87-18.98,40.52-18.98h104.57c16.33,0,31.74,7.56,41.72,20.48l34.34,44.4c12.7,16.42,14.58,38.76,4.82,57.08l-50.17,94.09c-9.17,17.19-27.06,27.93-46.54,27.93Z"/>
          <path class="cls-1" d="M185.9,720.2c13.93-6.22,34.35-10.72,69.33-10.87,33.65-.14,56.33,3.6,69.33,9.09"/>
          <path class="cls-1" d="M597.68,720.2c13.93-6.22,34.35-10.72,69.33-10.87,33.65-.14,56.33,3.6,69.33,9.09"/>
        </g>
        <path class="cls-4" d="M360.27,1494.9c-29.58-21.01-45.67-40.95-55-55.83-11.39-18.18-25.75-34.36-37.28-52.44-4.07-6.38-6.72-11.83-17.05-9.36-11.15,2.67-29.26-8.94-37.93-14.48-16.31-10.42-40.63-32.82-65.44-66.17,2.43-4.75,4.86-9.66,7.27-14.73,2.54-5.33,4.92-10.57,7.17-15.71,20.45,31.39,49.43,55.02,76.77,80.05,6.83,6.25,16.86,1.11,17.66-8.27.6-7,.92-14.03,1.5-23.05,9.19,14.94,17.18,28.19,25.44,41.27,21.08,33.37,42.6,66.36,71.13,94.17,11.77,11.47,22.56,20.28,25.9,22.98,15.28,12.32,29.35,21.66,40.61,28.47"/>
        <path class="cls-4" d="M492.73,1500.78c26.76-17.03,66.49-46.39,88.43-70.1,27.41-29.63,49.17-63.39,70.75-97.28,3.66-5.75,7.3-11.51,10.95-17.26.64.13,1.29.26,1.94.39,0,4.98.01,9.97,0,14.95-.01,5.58,1.94,10.08,7.39,12.24,5.19,2.06,9.36.03,13.24-3.57,13.62-12.64,27.3-25.21,41.06-37.68,11.16-10.12,21-21.05,29.43-32.84.96,12.25,4.69,23.6,10.5,33.28-19.47,21.89-41.4,41.3-63.45,60.53-9.57,8.34-21.01,13.39-33.86,10.08-6.49-1.67-8.77.69-11.82,5.36-6.55,10.03-51.34,70.53-87.94,103.7-3.56,3.23-9.41,8.35-17.1,14.25"/>
      </g>
      <path class="cls-3" d="M920.36,438.84c-.04-6.46-.73-13.63-4.35-19.25-10.09-15.64-9.05-32.07-8.89-48.6.1-9.75.02-19.5-.06-29.23-.56-71.39-27.99-136.18-80.94-194.62-.25-.3-.53-.58-.79-.87-7.21-7.42-14.74-15.95-30.54-29.27-31.03-26.17-58.74-44.26-73.9-52.55-25.3-13.84-56.95-27.68-110.76-44.31C578.06,10.2,529.61.99,470.55.02c0,0-81.94-1.35-159.29,20.35-15.7,4.4-30.62,9.66-30.62,9.66-5.93,2.1-24.39,8.73-48.32,20.15-18.46,8.82-39.67,19.39-77.15,45.02-13.38,9.15-24.09,17.2-31.62,23.05-3.41,3.24-5.75,5.46-8.1,7.65-53.51,50.36-87.73,107.49-97.18,172.24-4.47,30.62-3.1,61.75-4.91,92.63-.38,6.66-3.04,13.24-4.78,19.84-2.77,10.58-7.96,21.11-8.1,31.68-.78,62.5-.4,124.99-.4,187.49,0,1.99-.13,4.02.17,6.01,1.41,9.14,11.93,16.33,23.63,16.24,11.4-.07,22.36-6.8,22.94-15.64,1.55-23.48,18.04-40.06,40.44-54.03,30.72-19.16,66-31.8,103-41.73,77.17-20.73,157.04-29.31,238.44-31.39,88.26-2.24,175.32,4.02,260.69,21.42,50.47,10.27,99.12,24.38,140.8,49.62,23.7,14.34,42.66,30.97,43.7,56.14.29,6.92,6.54,12.01,15.47,14.38,16.24,4.31,31.17-4.28,31.2-18.48.13-64.51.12-129-.22-193.5ZM858.73,359.01c-34.24-19.66-70.74-33.38-109.36-43.96-43.49-11.92-88.15-20.14-133.76-25.34-44.8-7.5-96.96-10.96-164.65-9.91-54.75.85-108.36,3.47-147.13,9.98-76.64,9.62-151.01,24.61-217.92,56.52-7.83,3.74-15.36,7.84-25,12.79-1.89-105.04,46.72-190.89,152.07-256.21,124.02-76.88,298.65-88.08,437.76-29.05,146.89,62.33,214.74,177.91,208,285.16Z"/>
      <path class="cls-2" d="M858.73,359.01c-34.24-19.66-70.74-33.38-109.36-43.96-43.49-11.92-88.15-20.14-133.76-25.34-44.8-7.5-96.96-10.96-164.65-9.91-54.75.85-108.36,3.47-147.13,9.98-76.64,9.62-151.01,24.61-217.92,56.52-7.83,3.74-15.36,7.84-25,12.79-1.89-105.04,46.72-190.89,152.07-256.21,124.02-76.88,298.65-88.08,437.76-29.05,146.89,62.33,214.74,177.91,208,285.16Z"/>
    </g>
  </g>
</svg>