<?xml version="1.0" encoding="UTF-8"?>
<svg id="Layer_2" data-name="Layer 2" xmlns="http://www.w3.org/2000/svg" viewBox="0 0 875.17 1364.92">
  <defs>
    <style>
      .cls-1 {
        fill: none;
        stroke: #0f0f0f;
        stroke-linecap: round;
        stroke-miterlimit: 10;
        stroke-width: 25px;
      }

      .cls-2, .cls-3 {
        stroke-width: 0px;
      }

      .cls-3 {
        fill: #fdfdfd;
      }
    </style>
  </defs>
  <g id="Layer_1-2" data-name="Layer 1">
    <g>
      <path class="cls-2" d="M766.52,1037.84c-1.74,5.45-3.71,10.84-5.17,16.36-9.89,37.46-29.82,68.67-58.4,94.59-13.76,12.48-27.44,25.05-41.06,37.68-3.88,3.6-8.05,5.63-13.24,3.57-5.45-2.16-7.4-6.66-7.39-12.25.01-4.98,0-9.96,0-14.94-.65-.13-1.29-.26-1.94-.39-3.65,5.75-7.29,11.51-10.95,17.26-21.58,33.88-43.33,67.65-70.75,97.28-34.19,36.95-74.63,65.23-120.09,86.58-4.96,2.33-9.31,1.34-13.89-.97-34.24-17.28-65.15-39.12-92.67-65.94-28.53-27.81-50.05-60.8-71.13-94.17-8.26-13.08-16.25-26.33-25.44-41.26-.57,9.01-.9,16.04-1.5,23.05-.8,9.38-10.83,14.52-17.66,8.27-30.08-27.54-62.14-53.37-82.65-89.72-10.57-18.73-16.42-39.31-22.68-59.7-.53-1.74-1.11-3.46-2.04-6.34-2.04,3.6-1.6,6.55-1.95,9.26-.59,4.61-.8,9.27-1.55,13.84-.74,4.5-3.61,7.23-7.98,8.75-4.54,1.58-6.43-1.83-8.59-4.28-12.6-14.28-21.11-30.99-28-48.56-15.27-38.9-23.32-79.61-29.4-120.75-9.24-62.58-12.99-125.62-15.34-188.77-2.23-60.09-1.65-120.19-1.54-180.3.02-9.94-1.45-19.64-4.28-29.39-4.27-14.68-4.85-30.14-6.42-45.32-4.66-45.28-3.75-90.53,4.16-135.34,9.29-52.65,27.96-101.88,58.03-146.42C118.44,90.38,193.86,43.05,284.66,18.07,349.28.29,415.27-1.98,481.66,1.22c58.74,2.84,115.53,15.05,169.19,39.47,109.09,49.64,179.12,132.91,209.78,248.55,15.69,59.19,18.7,119.83,8.96,180.19-7.82,48.49-6.81,96.98-7.18,145.63-.25,32.63-1.42,65.26-2.83,97.86-2.48,57.32-6.58,114.53-14.96,171.35-6.1,41.37-14.1,82.31-27.69,121.99-6.16,17.99-12.92,35.7-23.33,51.78-1.13,1.75-2.16,3.6-3.5,5.18-3.08,3.64-7.13,5.38-11.78,4.17-4.65-1.21-7.56-4.6-8.21-9.4-.91-6.66-1.47-13.36-2.19-20.05-.47-.04-.94-.07-1.41-.11ZM436.49,30.22c-2.32,0-4.65,0-6.97,0-64.15-.21-126.73,8.64-186.41,33.2-73.34,30.18-131.78,78.13-168.91,148.82-51.67,98.36-54.87,201.92-28.14,307.76,7.09,28.08,16.37,55.65,22.41,83.93,9.26,43.28,14.34,87.42,26.05,130.22.88,3.2-.92,4.63-3.14,6.15-52.74,36.09-52.94,118.03-6.32,160.23,21.68,19.62,47.53,31.15,75.68,37.85,40.66,9.68,81.53,8.97,122.37,1.37,56.09-10.44,107.78-30.77,151.16-69.05,3.23-2.85,4.47-1.37,6.64.63,14.91,13.82,31.56,25.2,49.56,34.56,42.56,22.13,88.13,33.71,135.68,37.86,42,3.66,82.99-.29,121.89-17.91,27.9-12.63,51.82-29.98,66.36-57.88,21.59-41.43,9.09-97.1-28.06-125.56-2.81-2.16-5.72-3.76-4.35-8.28,12.4-41.07,11.91-84.33,21.31-125.9,4.18-18.49,7.15-37.28,15.88-54.61,8.69-17.24,15.05-36.01,17.7-54.74,4.5-31.87,7.9-64.05,7.79-96.44-.21-61.98-11.51-121.51-39.49-177.11-41.84-83.16-108.72-137.95-195.55-169.17-55.92-20.11-113.96-27.05-173.13-25.94Z"/>
      <path class="cls-2" d="M773.71,1279.07c-16.1,10.15-33.97,15.15-52.15,19.21l-.09.02-108.99,28.7c-26.93,7.42-54.24,13.21-82.02,16.97-.34.04-.74-.33-1.75-.81,5.86-4.88,11.54-9.49,17.1-14.25,34.91-29.81,62.97-65.47,87.94-103.7,3.05-4.67,5.33-7.03,11.82-5.36,12.85,3.31,24.29-1.74,33.86-10.08,24.14-21.05,48.13-42.31,68.93-66.81,2.46-2.9,3.54-2.6,5.25.55,15.15,27.73,28.77,56.19,39.01,86.08,7.02,20.49-.13,37.64-18.91,49.48Z"/>
      <path class="cls-2" d="M336.74,1341.23c-1.57,2.42-3.5,1.14-4.99.9-24.6-4-48.84-9.45-72.78-16.18l-101.55-26.51v-.03c-14.34-3.09-28.48-6.9-42.12-12.74-3.61-1.55-7.14-3.35-10.5-5.38-24.16-14.64-30.21-32.8-20.09-59.12,10.17-26.46,21.89-52.19,35.54-77.03.65-1.19,1.09-2.62,3.03-3.13,19.78,24.45,43.28,45.48,66.2,67.11,10.73,10.13,23.02,18.04,37.93,14.48,10.33-2.47,12.98,2.98,17.05,9.36,25.69,40.31,54.75,77.81,92.28,108.27Z"/>
      <path class="cls-3" d="M803.29,608.25c4.18-18.49,7.15-37.29,15.89-54.62,8.69-17.24,15.05-36.01,17.69-54.74,4.5-31.87,7.91-64.05,7.79-96.44-.21-61.98-11.51-121.51-39.48-177.11-41.84-83.17-108.72-137.95-195.56-169.18-55.91-20.1-113.95-27.05-173.13-25.94-2.32,0-4.64,0-6.97,0-64.14-.21-126.73,8.64-186.41,33.2-73.34,30.18-131.78,78.13-168.91,148.82-51.67,98.37-54.87,201.92-28.14,307.76,7.09,28.08,16.37,55.65,22.42,83.93,9.25,43.28,14.33,87.42,26.05,130.22.87,3.21-.92,4.64-3.14,6.16-52.74,36.09-52.94,118.03-6.32,160.23,21.68,19.62,47.53,31.15,75.68,37.85,40.67,9.68,81.53,8.97,122.37,1.38,56.08-10.44,107.78-30.77,151.15-69.05,3.24-2.86,4.48-1.37,6.64.63,14.91,13.82,31.56,25.2,49.56,34.56,42.56,22.13,88.13,33.71,135.69,37.86,42,3.66,82.98-.29,121.88-17.91,27.9-12.63,51.82-29.98,66.36-57.88,21.59-41.43,9.09-97.1-28.06-125.55-2.82-2.16-5.72-3.76-4.35-8.28,12.39-41.07,11.91-84.34,21.3-125.9ZM794.93,807.38c4.71,24.55-4.94,45.17-20.84,63.08-21.89,24.64-49.6,38.64-82.27,42.4-62.55,7.2-122.76-1.26-179.78-28.6-29.96-14.36-55.91-33.88-74.55-63.09-28.76,42.86-70.44,65.41-117.41,79.7-49.64,15.1-100.28,19.44-151.39,9.34-32.27-6.39-58.34-23.79-76.78-51.26-27.22-40.55-10.37-88.91,35.98-104.48,6.82-2.29,13.77-4.21,20.97-4.93,6.58-.66,11.34,2.52,12.65,8.23,1.45,6.29-1.24,11.09-7.89,13.45-7.44,2.64-14.85,5.26-21.31,9.99-13.48,9.86-13.87,25.99-.82,36.52,12.36,9.98,26.32,10.68,40.9,6.63,17.65-4.9,32.36-14.99,45.61-27.23,16.54-15.27,32.04-31.73,49.25-46.16,27.22-22.83,57.96-39.22,93.86-43.74,25.01-3.15,60.97,9.96,75.75,30.87,29.91-30.69,66.69-39.23,107.03-29.81,25.07,5.85,46.58,20.03,64.14,39.69,18.68,20.91,38.15,41.14,60.11,58.69,12.42,9.93,26.19,17.67,42.1,20.69,11.34,2.14,22.2,1.13,31.98-5.7,11.4-7.95,13.42-21.08,4.94-32.15-6.89-9-16.67-13.78-26.62-18.33-6.55-2.99-8.97-7.72-7.1-13.92,1.6-5.31,5.34-8.43,10.88-7.84,36.8,3.92,64.34,25.28,70.61,57.96Z"/>
      <path class="cls-2" d="M437.49,821.17c-28.77,42.87-70.44,65.41-117.41,79.7-49.64,15.1-100.28,19.45-151.39,9.34-32.27-6.38-58.34-23.78-76.78-51.26-27.22-40.55-10.37-88.91,35.98-104.48,6.82-2.29,13.78-4.21,20.97-4.93,6.58-.66,11.34,2.52,12.65,8.23,1.45,6.29-1.24,11.09-7.9,13.45-7.44,2.64-14.85,5.26-21.31,9.99-13.48,9.86-13.87,26-.82,36.53,12.36,9.97,26.32,10.68,40.9,6.63,17.66-4.9,32.37-14.99,45.62-27.23,16.53-15.27,32.03-31.73,49.25-46.17,27.22-22.83,57.96-39.22,93.86-43.73,25.02-3.15,60.97,9.96,75.76,30.87,29.91-30.69,66.68-39.23,107.03-29.81,25.07,5.85,46.58,20.03,64.14,39.69,18.68,20.91,38.15,41.15,60.11,58.7,12.42,9.93,26.19,17.67,42.1,20.68,11.34,2.15,22.2,1.13,31.98-5.7,11.4-7.95,13.41-21.08,4.94-32.15-6.89-8.99-16.67-13.77-26.62-18.32-6.55-2.99-8.96-7.72-7.1-13.92,1.6-5.31,5.34-8.44,10.88-7.85,36.8,3.92,64.35,25.28,70.62,57.96,4.71,24.54-4.94,45.16-20.84,63.07-21.89,24.65-49.6,38.65-82.27,42.41-62.55,7.2-122.76-1.27-179.79-28.6-29.96-14.36-55.91-33.88-74.54-63.09Z"/>
      <path class="cls-2" d="M441.83,504.01s-2.33-.54-3.52-.54h-1.44c-1.2,0-2.39.18-3.54.55l-33.03,10.43-67.98-81.59c-10.02-12.03-24.87-18.98-40.52-18.98h-127.01c-16.33,0-31.74,7.56-41.73,20.48l-63.34,81.91h-31.88v23.4h30.61l73.07,137.06c9.17,17.19,27.06,27.93,46.54,27.93h119.94c21.03,0,40.06-12.5,48.41-31.8l58.55-135.34,27.03-8.54c3.64-1.15,7.55-1.15,11.19,0h0s27.02,8.54,27.02,8.54l58.54,135.33c8.35,19.31,27.37,31.8,48.41,31.8h119.95c19.48,0,37.38-10.74,46.54-27.93l73.07-137.06h30.61v-23.4h-31.88l-63.34-81.91c-9.99-12.92-25.4-20.48-41.73-20.48h-127.01c-15.65,0-30.5,6.95-40.52,18.98l-67.98,81.59-33.04-10.44ZM282.63,681.26h-90.53c-19.48,0-37.38-10.74-46.54-27.93l-50.17-94.09c-9.77-18.32-7.88-40.66,4.82-57.08l34.34-44.4c9.99-12.92,25.4-20.48,41.72-20.48h104.57c15.65,0,30.5,6.95,40.52,18.98l40.62,48.75c12.74,15.29,15.79,36.44,7.89,54.71l-38.83,89.74c-8.35,19.3-27.37,31.8-48.41,31.8ZM683.07,681.26h-90.53c-21.03,0-40.06-12.5-48.41-31.8l-38.83-89.74c-7.9-18.26-4.85-39.42,7.89-54.71l40.62-48.75c10.02-12.03,24.87-18.98,40.52-18.98h104.57c16.33,0,31.74,7.56,41.72,20.48l34.34,44.4c12.7,16.42,14.58,38.76,4.82,57.08l-50.17,94.09c-9.17,17.19-27.06,27.93-46.54,27.93Z"/>
      <path class="cls-1" d="M162.36,566.53c13.93-6.22,34.35-10.72,69.33-10.87,33.65-.14,56.33,3.6,69.33,9.09"/>
      <path class="cls-1" d="M574.14,566.53c13.93-6.22,34.35-10.72,69.33-10.87,33.65-.14,56.33,3.6,69.33,9.09"/>
    </g>
  </g>
</svg>